<svg role="img" viewBox="0 0 24 24" xmlns="http://www.w3.org/2000/svg" fill="white">
  <title>Instagram</title>
  <path d="M12 2.163c3.204 0 3.584.012 4.849.07 1.366.062 2.633.35 3.608 1.326.975.975 1.263 2.242 1.326 3.608.058 1.265.07 1.645.07 4.849s-.012 3.584-.07 4.849c-.062 1.366-.35 2.633-1.326 3.608-.975.975-2.242 1.263-3.608 1.326-1.265.058-1.645.07-4.849.07s-3.584-.012-4.849-.07c-1.366-.062-2.633-.35-3.608-1.326-.975-.975-1.263-2.242-1.326-3.608C2.175 15.584 2.163 15.204 2.163 12s.012-3.584.07-4.849c.062-1.366.35-2.633 1.326-3.608C4.534 2.583 5.801 2.295 7.167 2.232 8.432 2.175 8.812 2.163 12 2.163zm0-2.163C8.741 0 8.332.014 7.052.072 5.77.13 4.672.37 3.737.986c-.935.615-1.67 1.35-2.285 2.285C.37 4.672.13 5.77.072 7.052.014 8.332 0 8.741 0 12s.014 3.668.072 4.948c.058 1.282.298 2.38.915 3.315.615.935 1.35 1.67 2.285 2.285.935.615 2.033.857 3.315.915C8.332 23.986 8.741 24 12 24s3.668-.014 4.948-.072c1.282-.058 2.38-.298 3.315-.915.935-.615 1.67-1.35 2.285-2.285.615-.935.857-2.033.915-3.315.058-1.28.072-1.689.072-4.948s-.014-3.668-.072-4.948c-.058-1.282-.298-2.38-.915-3.315-.615-.935-1.35-1.67-2.285-2.285-.935-.615-2.033-.857-3.315-.915C15.668.014 15.259 0 12 0zM12 5.838a6.162 6.162 0 1 0 0 12.324 6.162 6.162 0 0 0 0-12.324zm0 10.162a3.999 3.999 0 1 1 0-7.998 3.999 3.999 0 0 1 0 7.998zm6.406-11.845a1.44 1.44 0 1 1-2.88 0 1.44 1.44 0 0 1 2.88 0z"/>
</svg>